# xmcd CD database file
#
# Track frame offsets:
#	150
#	17747
#	39185
#	52053
#	67994
#	87069
#	109025
#	132611
#	145955
#	163829
#	177508
#	195741
#	217551
#	235733
#	259893
#
# Disc length: 4129 seconds
#
# Revision: 0
# Processed by: cddbd v1.5.1PL0 Copyright (c) Steve Scherf et al.
# Submitted via: CDex 1.51
#
DISCID=d0101f0f
DTITLE=Neal McCarthy and Jamison T. - In The Company Of
DYEAR=1900
DGENRE=Blues
TTITLE0=Sing With Me Somehow
TTITLE1=That One, You Know...
TTITLE2=Ain't No Lie
TTITLE3=Picasso
TTITLE4=Baby, Are You Gone
TTITLE5=It Won't Bother Me
TTITLE6=Some Help You Live/Die
TTITLE7=Love Thy Neighbor
TTITLE8=Blues For Padre
TTITLE9=Candy For The Soul
TTITLE10=The Plan
TTITLE11=Hammer Blues Thing
TTITLE12=Fits Like A Glove
TTITLE13=Bend
TTITLE14=Turnin' Back The Years
EXTD=
EXTT0=
EXTT1=
EXTT2=
EXTT3=
EXTT4=
EXTT5=
EXTT6=
EXTT7=
EXTT8=
EXTT9=
EXTT10=
EXTT11=
EXTT12=
EXTT13=
EXTT14=
PLAYORDER=
